<svg width="80" height="73" viewBox="0 0 80 73" fill="none" xmlns="http://www.w3.org/2000/svg">
<g filter="url(#filter0_d_409_5185)">
<path fill-rule="evenodd" clip-rule="evenodd" d="M46.6257 7.2723L40 0L33.3742 7.2723L24 4.28719L21.8981 13.8981L12.2872 16L15.2723 25.3742L8 32L15.2723 38.6258L12.2872 48L21.8981 50.1019L24 59.7128L33.3742 56.7277L40 64L46.6257 56.7277L56 59.7128L58.1019 50.1019L67.7128 48L64.7277 38.6258L72 32L64.7277 25.3742L67.7128 16L58.1019 13.8981L56 4.28719L46.6257 7.2723ZM26.8148 9.16252L34.5398 11.6225L40 5.62955L45.4601 11.6225L53.1852 9.16252L54.9174 17.0826L62.8374 18.8148L60.3775 26.5399L66.3704 32L60.3775 37.4601L62.8374 45.1852L54.9174 46.9174L53.1852 54.8375L45.4601 52.3775L40 58.3705L34.5398 52.3775L26.8148 54.8375L25.0826 46.9174L17.1625 45.1852L19.6225 37.4601L13.6295 32L19.6225 26.5399L17.1625 18.8148L25.0826 17.0826L26.8148 9.16252ZM30.1213 17.037C32.1268 16.2836 34.1555 15.5201 36.2089 14.7474L36.2635 14.7268C37.6433 14.2075 39.0343 13.6841 40.4367 13.1567C40.5025 13.1343 40.5405 13.1255 40.5527 13.1343C40.5683 13.1472 40.565 13.1812 40.5405 13.2375C40.4686 13.4128 40.4089 13.5191 40.3647 13.5598C37.1415 14.7671 33.6575 16.1114 29.9151 17.5934C29.955 17.4218 30.0243 17.2371 30.1213 17.037ZM36.0728 13.7108C35.8926 13.8234 35.7727 13.9423 35.7134 14.0683C35.6327 14.2394 35.6613 14.3567 35.7968 14.4205C35.9612 14.4979 36.1129 14.4424 36.2562 14.2554C36.2829 14.2164 36.3006 14.1927 36.3077 14.1845C36.301 14.1781 36.2968 14.1724 36.2939 14.1646C36.2858 14.164 36.2614 14.1659 36.2236 14.1713C36.171 14.1804 36.1194 14.1727 36.0701 14.1495C35.981 14.1075 35.9584 14.0382 36.0035 13.9425C36.0519 13.8396 36.2863 13.7043 36.7055 13.5321C36.7922 13.4975 36.8369 13.4734 36.8414 13.4639L36.8422 13.4621L36.8425 13.4611C36.8426 13.4605 36.8419 13.4595 36.8415 13.4591L36.8406 13.4586C36.8282 13.4527 36.777 13.4587 36.6881 13.4734C36.4635 13.5133 36.2588 13.5925 36.0728 13.7108ZM43.1508 30.1611C43.6915 30.1611 44.2169 29.9513 44.7268 29.5323C44.8739 29.4077 44.949 28.957 44.949 28.1752C44.949 27.7003 44.8273 25.7929 44.5825 22.4499C44.339 19.1074 44.2202 17.1374 44.2202 16.5366C44.2202 15.9925 44.1331 15.5485 43.9638 15.1949C43.9638 15.0044 44.1197 14.5353 44.4387 13.7882C44.4733 13.6973 44.5045 13.6531 44.5392 13.6531C44.5738 13.6531 44.6138 13.7035 44.658 13.804C44.7489 13.9975 44.9582 14.5295 45.2863 15.3988C45.6244 16.3052 45.8308 16.8589 45.8963 17.0619C45.9305 17.2341 45.9496 17.3529 45.9496 17.418C45.9496 17.6686 45.712 17.5222 45.2363 16.9777C45.1804 16.8997 45.1521 16.9335 45.1521 17.0811C45.1521 17.1149 45.2588 18.6004 45.4743 21.5427C45.687 24.4824 45.7962 26.2365 45.7962 26.8023C45.7962 28.4412 45.5023 29.7329 44.9148 30.6705C44.4166 31.4581 43.8316 31.855 43.1604 31.8588V31.8667C42.9256 31.9005 42.6913 31.9017 42.457 31.8667V31.8588C42.2346 31.8584 42.0136 31.8331 41.794 31.7827C41.847 32.5066 41.9076 33.3331 41.9761 34.2621C42.2827 38.4204 42.4354 40.7128 42.4354 41.1411C42.4354 42.4548 42.2325 43.6145 41.826 44.6216C41.7412 44.8252 41.6727 44.9716 41.6224 45.0626C41.5418 45.1909 41.4942 45.2065 41.4785 45.1122C41.4542 45.0157 41.4631 44.8028 41.5037 44.4743C41.5539 44.021 41.5789 43.4957 41.5789 42.8951C41.5789 42.3604 41.4134 39.7655 41.0816 35.1089C40.9791 33.6697 40.8928 32.4302 40.8224 31.3908C40.5875 31.2545 40.3541 31.0884 40.1222 30.8923C39.4856 30.2955 38.8469 29.7014 38.2059 29.1051L37.9929 28.9069C37.902 28.829 37.8458 28.7881 37.8237 28.7881C37.7953 28.7881 37.817 28.8727 37.8925 29.0412C38.1522 29.6416 38.2798 30.0697 38.2798 30.3236C38.2798 31.2805 38.005 32.0026 37.4513 32.4938C37.0544 32.8503 36.1601 33.3251 34.7621 33.9134C33.9045 34.2803 33.2616 34.5676 32.8372 34.7686C31.99 35.163 31.405 35.4853 31.089 35.735C30.5074 36.1882 29.6635 37.055 28.5532 38.3308C27.8937 39.0934 27.2274 39.4782 26.5617 39.4782C26.3685 39.4782 26.1839 39.4481 26.0078 39.388C25.9616 39.586 25.916 39.784 25.8716 39.9821C25.7589 40.5046 25.7026 40.8894 25.7026 41.1363C25.7026 41.9962 25.9903 42.7873 26.5658 43.5095C27.3476 44.4729 28.4768 44.9541 29.9588 44.9541C31.2563 44.9541 32.6351 44.648 34.0956 44.0381C35.2715 43.5501 36.3281 42.9407 37.2665 42.2059C38.1134 41.5489 38.539 41.08 38.539 40.7984C38.539 40.7516 38.3639 40.3858 38.0137 39.6951C37.5943 38.8814 37.2822 38.0875 37.0786 37.3179C37.0006 37.0587 36.9069 36.8836 36.8004 36.7927C36.6939 36.7024 36.641 36.6081 36.641 36.5049C36.641 36.4269 36.719 36.0082 36.8757 35.2515C36.9002 35.1137 36.9347 35.048 36.9789 35.048C37.0258 35.048 37.082 35.0791 37.1479 35.1478C37.3629 35.3859 37.8257 35.8548 38.539 36.5551C38.6516 36.6711 38.7079 36.7614 38.7079 36.8273C38.7079 36.9086 38.6421 36.9459 38.5043 36.9459C38.3579 36.9459 38.1386 36.9025 37.8448 36.8117C37.8666 36.9025 38.1047 37.3993 38.5547 38.3032C38.9176 39.0381 39.0988 39.6727 39.0988 40.2046C39.0988 41.2551 38.8613 42.0525 38.3856 42.5967C38.0537 42.983 37.6526 43.3642 37.1826 43.74C37.148 43.9714 36.9651 44.5339 36.6287 45.4336C36.2568 46.4372 36.0725 47.231 36.0725 47.8126C36.0725 48.2596 36.1755 48.616 36.3852 48.882C36.6045 49.1697 36.9139 49.3169 37.3075 49.3169C38.005 49.3169 38.7088 48.96 39.4213 48.2537C39.6574 47.9716 39.8944 47.6903 40.1313 47.4091L40.1321 47.4082L40.1336 47.4063L40.135 47.4048L40.1371 47.4022L40.1389 47.4L40.1406 47.398C40.3525 47.1466 40.5644 46.8951 40.7755 46.6431C41.3634 45.9802 42.1356 45.3894 43.0924 44.8699C43.6523 44.5635 44.6246 44.1194 46.0072 43.5378V43.5428L46.013 43.5378L47.3922 42.9529C47.1954 42.4121 47.0983 41.8593 47.0983 41.2993C47.0983 40.4517 47.2234 39.7696 47.4735 39.2539C47.7266 38.741 48.0585 38.485 48.4712 38.485C48.8369 38.485 49.1808 38.7886 49.5031 39.4015C49.7904 39.9422 49.9376 40.4363 49.9376 40.8774C49.9376 41.996 49.609 42.9158 48.9528 43.6316C49.4185 44.1136 49.9751 44.3546 50.6255 44.3546L50.6284 44.3567V44.3546C51.1696 44.3546 51.6949 44.1449 52.2048 43.7259C52.3512 43.6004 52.4266 43.1505 52.4266 42.3688C52.4266 41.893 52.1736 38.1661 51.6699 31.1896C51.1667 24.2102 50.9161 20.4261 50.9161 19.8386C50.9161 19.2946 50.8198 18.8472 50.6284 18.497C50.6284 18.2943 50.7877 17.8245 51.11 17.0902C51.1446 16.9994 51.1788 16.9552 51.2134 16.9552C51.248 16.9552 51.2884 16.9994 51.3355 17.0902C51.4256 17.2933 51.6386 17.8245 51.9734 18.685C52.3203 19.5881 52.5263 20.148 52.5955 20.364C52.6301 20.5232 52.6484 20.6421 52.6484 20.72C52.6484 20.9677 52.4075 20.8172 51.9326 20.2606C51.8763 20.1826 51.8484 20.2172 51.8484 20.364C51.8484 20.3986 52.086 23.704 52.5609 30.2794C53.0366 36.8586 53.2743 40.43 53.2743 40.9962C53.2743 42.6339 52.9803 43.9256 52.392 44.8641C51.8917 45.6554 51.3043 46.0523 50.6284 46.0523V46.0494L50.6255 46.0523C49.9972 46.0523 49.356 45.7767 48.6993 45.2264C48.3491 44.9325 48.0739 44.6168 47.8767 44.2762L46.013 45.0667L46.0072 45.0638C45.1379 45.4357 44.487 45.7271 44.0589 45.9302C43.2112 46.3246 42.6271 46.646 42.3107 46.8962C41.729 47.3498 40.8848 48.2162 39.7749 49.492C39.1153 50.2546 38.4491 50.6394 37.7832 50.6394C37.2233 50.6394 36.7355 50.3863 36.3164 49.8831C35.8758 49.3578 35.6565 48.7165 35.6565 47.9565C35.6565 46.9306 36.07 45.597 36.8998 43.9593C36.3753 44.3537 35.7741 44.7418 35.0964 45.1232C33.2635 46.1424 31.5561 46.6519 29.9744 46.6519C27.8477 46.6519 26.3846 45.611 25.5812 43.5284C25.4243 43.1219 25.3463 42.6028 25.3463 41.9682C25.3463 41.5489 25.3776 41.1269 25.446 40.6952C25.531 40.1749 25.6418 39.7057 25.7795 39.2909C25.5335 39.1646 25.3053 38.9747 25.0944 38.7215C24.654 38.1961 24.4348 37.5549 24.4348 36.7948C24.4348 35.9527 24.7132 34.9035 25.2721 33.6485L25.0509 33.8307C24.4062 34.3187 23.8185 34.5622 23.2871 34.5622C22.7274 34.5622 22.2394 34.3091 21.8207 33.8057C21.3797 33.2803 21.1604 32.6391 21.1604 31.8791C21.1604 30.8347 21.5893 29.4713 22.4491 27.7925C22.5394 27.6174 22.6086 27.53 22.6581 27.53C22.6833 27.5326 22.6926 27.5578 22.6926 27.5957C22.6926 27.7675 22.5081 28.3524 22.1329 29.356C21.761 30.3597 21.5765 31.1536 21.5765 31.736C21.5765 32.1763 21.6795 32.5332 21.8892 32.8047C22.1145 33.0924 22.4241 33.2397 22.8115 33.2397C23.4527 33.2397 24.0532 33.03 24.6192 32.6113C25.3134 32.0108 26.0104 31.4102 26.7046 30.813C27.8899 29.8079 29.0722 29.0265 30.2492 28.4716C30.0973 27.8686 29.983 27.2613 29.9064 26.6487C29.8847 26.4831 29.8691 26.3825 29.8562 26.3419C29.8224 26.217 29.7504 26.0827 29.6377 25.9354L30.0192 25.0098C30.0788 24.8564 30.1352 24.7819 30.1787 24.7819C30.2193 24.7819 30.2851 24.8564 30.3821 25.0098L31.3573 26.5707C31.489 26.7797 31.5514 26.9329 31.5514 27.03C31.5514 27.0986 31.5201 27.1332 31.4517 27.1332C31.3322 27.1332 31.1199 27.0335 30.8138 26.8359C30.8664 27.1951 30.9586 27.6132 31.0911 28.0888L31.2416 28.0206C31.908 27.7892 32.4801 27.6738 32.9557 27.6738C33.4342 27.6738 33.8157 27.874 34.0938 28.2805C34.3754 28.6835 34.5159 29.2182 34.5159 29.8778C34.5159 30.4282 34.3971 30.8821 34.1596 31.2384C33.9214 31.5947 33.606 31.7731 33.2184 31.7731C32.6802 31.7731 32.1611 31.5106 31.6577 30.9914C31.2824 30.6005 31.0041 30.1812 30.8169 29.734C29.8974 30.1004 28.8401 30.7539 27.6553 31.6918C27.027 32.2052 26.4023 32.7183 25.7786 33.2315C25.6879 33.5053 25.5643 33.8519 25.4073 34.272C25.0354 35.2755 24.8509 36.0694 24.8509 36.651C24.8509 37.0984 24.9541 37.4552 25.1637 37.7204C25.3823 38.0081 25.6924 38.1557 26.0859 38.1557C26.7835 38.1557 27.4872 37.7992 28.1997 37.0921C28.4031 36.8495 28.6071 36.6074 28.811 36.3653L28.8119 36.3643L28.8122 36.3639C29.0597 36.0702 29.3071 35.7765 29.5535 35.4819C30.1417 34.819 30.9143 34.2278 31.8707 33.7087C32.4277 33.4044 33.3921 32.9632 34.7621 32.3862V32.3837C36.2381 31.7591 37.2078 31.2738 37.6706 30.9332C37.8049 30.8336 37.8516 30.6989 37.8049 30.5267C37.5577 29.6228 36.5387 28.4187 34.7463 26.9152C33.0963 25.5837 31.4459 24.2556 29.7957 22.9277L29.7919 22.9246L29.78 22.915L29.7792 22.9144L29.6061 22.7751C29.5464 22.7247 29.5151 22.5375 29.5151 22.2152C29.5151 21.7966 29.5592 21.3651 29.6497 20.9177C29.7465 20.4203 29.8653 20.1047 30.0062 19.9767C30.9727 19.1036 33.036 17.9466 36.1943 16.5053C39.3934 15.0415 41.5072 14.3102 42.53 14.3102C42.8331 14.3102 43.0424 14.3698 43.1549 14.4911C43.2709 14.6133 43.3271 14.8197 43.3271 15.1136C43.3271 15.7861 42.9235 16.6241 42.1235 17.6252C41.9755 17.7928 41.827 17.9605 41.6781 18.1285L41.6731 18.1341L41.6725 18.1348C41.5207 18.3061 41.3685 18.4779 41.2162 18.6504C40.7351 19.2104 40.4095 19.6669 40.241 20.0171C40.1284 20.2548 40.0563 20.3736 40.028 20.3736C40 20.3736 40.0159 20.2139 40.0784 19.8983C40.1126 19.7232 40.2469 19.4201 40.4787 18.9911C40.6884 18.5941 40.8443 18.3377 40.9506 18.2189C41.8575 17.1899 42.3982 16.5116 42.5796 16.1893C42.5988 16.158 42.6046 16.1242 42.6046 16.0896C42.6046 15.8953 42.3515 15.8015 41.842 15.8015C41.0353 15.8015 39.1211 16.5053 36.1009 17.9129C33.0832 19.3196 31.016 20.4766 29.9032 21.383C29.8311 21.4464 29.8403 21.4993 29.9374 21.5427C30.9251 22.1493 31.8982 22.7751 32.8551 23.4189C35.1565 24.9798 37.192 26.5183 38.9681 28.0347C39.506 28.5037 40.0409 28.9761 40.5783 29.451C40.619 29.4813 40.6597 29.5106 40.7003 29.539C40.6249 28.3533 40.5875 27.6478 40.5875 27.4232C40.5875 26.8761 40.5034 26.4257 40.3344 26.0754C40.3344 25.8536 40.4906 25.3846 40.8067 24.668C40.8754 24.5085 40.9506 24.512 41.0288 24.6747C41.1196 24.8683 41.3286 25.4002 41.6536 26.2695C42.0011 27.1761 42.2014 27.7326 42.2577 27.9423C42.3011 28.1017 42.3261 28.2206 42.3261 28.2986C42.3261 28.5489 42.0853 28.399 41.6041 27.8486C41.5478 27.7699 41.5193 27.8045 41.5193 27.9518C41.5193 27.98 41.5682 28.6743 41.6667 30.0338C41.9299 30.1187 42.1911 30.1612 42.4499 30.1611V30.1577C42.6905 30.2007 42.924 30.2015 43.1508 30.1611ZM33.2931 30.0754C33.5123 30.0754 33.6249 30.0156 33.6249 29.8969C33.6249 29.7218 33.4682 29.5684 33.156 29.4375C32.9246 29.3431 32.5494 29.3403 32.0301 29.4307C32.305 29.8596 32.7271 30.0754 33.2931 30.0754ZM49.5061 41.6054C49.5061 41.4182 49.3593 41.1305 49.0716 40.7394C48.7556 40.32 48.4804 40.1136 48.249 40.1136C48.0739 40.1136 47.9017 40.2203 47.7328 40.4363C47.5644 40.6485 47.4798 40.852 47.4798 41.0454C47.4798 41.2084 47.5707 41.4961 47.7579 41.9026C47.9175 42.2587 48.0397 42.4997 48.1302 42.6218C48.3678 42.5093 48.6401 42.35 48.9461 42.1403C49.3184 41.8905 49.5061 41.7121 49.5061 41.6054ZM47.3983 17.5946C47.3983 17.0468 47.314 16.5971 47.1452 16.2468C47.1452 16.0243 47.3019 15.5554 47.6174 14.8394C47.686 14.6799 47.7612 14.6834 47.8394 14.8458C47.9302 15.0397 48.1392 15.5709 48.4649 16.4402C48.8117 17.3475 49.012 17.904 49.0683 18.1137C49.1124 18.2731 49.1367 18.392 49.1367 18.47C49.1367 18.7203 48.8966 18.5697 48.4147 18.0193C48.3585 17.9413 48.3307 17.9759 48.3307 18.1225C48.3307 18.1727 48.4806 20.277 48.7867 24.4328C49.0933 28.5918 49.2467 30.8842 49.2467 31.3125C49.2467 32.6254 49.0431 33.7859 48.6366 34.793C48.5525 34.9959 48.4834 35.143 48.4337 35.2333C48.3524 35.3616 48.3055 35.3772 48.2898 35.2836C48.2648 35.1864 48.2744 34.9742 48.315 34.6457C48.3645 34.1924 48.3897 33.6671 48.3897 33.0665C48.3897 32.5318 48.224 29.9362 47.8922 25.2803C47.5611 20.6272 47.3983 18.0634 47.3983 17.5946ZM29.6624 34.0757V33.0876C29.8123 33.1406 30.1061 33.1968 30.5378 33.2566C30.9693 33.3164 31.2068 33.3346 31.2537 33.3129C31.2883 33.2973 31.3074 33.2505 31.3074 33.1724V31.9367C31.3074 31.8804 31.2917 31.8491 31.2633 31.8465C30.7318 31.79 30.2067 31.7088 29.6841 31.6056C29.6216 31.5934 29.587 31.6306 29.5809 31.7209C29.5531 32.0121 29.5464 32.3527 29.5592 32.7436C29.0056 32.675 28.4992 32.597 28.0426 32.5122C27.9801 32.5027 27.9455 32.5407 27.9394 32.6283C27.8641 33.3407 27.8701 33.7852 27.9551 33.9569C27.9768 34.0038 28.2455 34.0634 28.7618 34.1415C29.2741 34.2168 29.5592 34.2413 29.6087 34.2168C29.6433 34.1978 29.6624 34.1537 29.6624 34.0757ZM33.9798 41.2114C33.9798 41.499 33.8611 41.8275 33.6237 42.1967C33.3799 42.5815 33.0671 42.9091 32.6823 43.1814C32.529 43.2878 32.4387 43.3441 32.4102 43.3441C32.4041 43.3441 32.4041 43.3408 32.4041 43.3347C32.4041 43.313 32.4665 43.2281 32.5982 43.0877C33.23 42.3968 33.549 41.9368 33.549 41.7026C33.549 41.4834 33.4451 41.3741 33.2422 41.3741C33.1296 41.3741 33.0264 41.4054 32.9354 41.4678C32.8702 41.5119 32.8263 41.5364 32.8106 41.5432C32.7983 41.5303 32.7855 41.5242 32.7672 41.518C32.7733 41.4963 32.7855 41.4367 32.8011 41.3396C32.9043 40.8646 33.139 40.6271 33.5144 40.6271C33.8238 40.6271 33.9798 40.8205 33.9798 41.2114ZM38.7774 19.3813C39.0149 19.0122 39.1335 18.6837 39.1335 18.396C39.1335 18.0051 38.9775 17.8118 38.6681 17.8118C38.2927 17.8118 38.058 18.0492 37.9548 18.5242C37.9392 18.6213 37.927 18.6809 37.9209 18.7026C37.9392 18.7089 37.952 18.7149 37.9644 18.7278C37.98 18.721 38.024 18.6965 38.0891 18.6524C38.1801 18.59 38.2833 18.5588 38.3959 18.5588C38.5988 18.5588 38.7027 18.668 38.7027 18.8873C38.7027 19.1215 38.3837 19.5815 37.7519 20.2724C37.6202 20.4127 37.5579 20.4977 37.5579 20.5194C37.5579 20.5255 37.5579 20.5288 37.5639 20.5288C37.5924 20.5288 37.6828 20.4725 37.836 20.366C38.2208 20.0938 38.5337 19.7661 38.7774 19.3813ZM38.4045 46.8354C38.2874 46.5726 38.2621 46.2242 38.3287 45.7904C38.3947 45.3397 38.5471 44.9131 38.7877 44.5078C38.8843 44.3481 38.9439 44.2599 38.9699 44.2484C38.9755 44.2459 38.9768 44.2489 38.9793 44.2544C38.9882 44.2743 38.9658 44.3773 38.9026 44.5591C38.6068 45.4473 38.5027 45.9973 38.598 46.2112C38.6873 46.4115 38.8267 46.469 39.012 46.3864C39.1148 46.3406 39.1963 46.27 39.2541 46.176C39.2956 46.1092 39.3258 46.0689 39.3373 46.0563C39.3538 46.0631 39.368 46.0634 39.3873 46.0617C39.3905 46.084 39.4037 46.1434 39.4289 46.2384C39.528 46.7143 39.4103 47.0267 39.0674 47.1795C38.7848 47.3055 38.5636 47.1924 38.4045 46.8354ZM42.6572 20.8289C42.8946 20.4598 43.0133 20.1313 43.0133 19.8436C43.0133 19.4527 42.8573 19.2594 42.5479 19.2594C42.1725 19.2594 41.9378 19.4969 41.8346 19.9718C41.8189 20.0689 41.8068 20.1285 41.8007 20.1502C41.8189 20.1565 41.8318 20.1626 41.8441 20.1754C41.8598 20.1686 41.9037 20.1441 41.9689 20.1C42.0599 20.0376 42.1631 20.0064 42.2757 20.0064C42.4786 20.0064 42.5825 20.1156 42.5825 20.3349C42.5825 20.5691 42.2635 21.0291 41.6317 21.72C41.5 21.8603 41.4376 21.9453 41.4376 21.967C41.4376 21.9731 41.4376 21.9764 41.4437 21.9764C41.4722 21.9764 41.5625 21.9201 41.7158 21.8136C42.1006 21.5414 42.4134 21.2137 42.6572 20.8289ZM22.4952 25.6861C22.4408 25.5371 22.4401 25.3446 22.4933 25.1085C22.5468 24.8632 22.6468 24.6343 22.7946 24.4206C22.8538 24.3365 22.8899 24.2903 22.9047 24.2849C22.9078 24.2837 22.9084 24.2854 22.9096 24.2886C22.9137 24.2998 22.8975 24.3556 22.8558 24.4532C22.6593 24.9304 22.5811 25.2289 22.6254 25.3502C22.6669 25.4637 22.7413 25.5007 22.8464 25.4623C22.9047 25.441 22.9522 25.4053 22.9876 25.3558C23.0129 25.3206 23.0311 25.2996 23.0379 25.2932C23.0467 25.2975 23.0545 25.2982 23.0651 25.298C23.0661 25.3104 23.0711 25.3435 23.0813 25.3968C23.1177 25.6622 23.0411 25.8296 22.8467 25.9006C22.6865 25.9591 22.5691 25.8885 22.4952 25.6861ZM24.822 27.26C25.0057 26.9752 25.0973 26.7218 25.0973 26.4998C25.0973 26.1983 24.9764 26.0491 24.7377 26.0491C24.4482 26.0491 24.2676 26.2323 24.1874 26.5987C24.1754 26.6736 24.166 26.7197 24.1613 26.7365C24.1754 26.7412 24.1854 26.7459 24.1948 26.7558C24.2069 26.7506 24.2409 26.7317 24.2917 26.6976C24.3612 26.6495 24.4408 26.6254 24.5277 26.6254C24.6848 26.6254 24.7644 26.7097 24.7644 26.8788C24.7644 27.0595 24.5183 27.4143 24.0309 27.9473C23.9293 28.0556 23.8812 28.1211 23.8812 28.1379C23.8812 28.1426 23.8812 28.1451 23.8859 28.1451C23.9079 28.1451 23.9781 28.1017 24.0959 28.0196C24.3926 27.8095 24.634 27.5568 24.822 27.26ZM29.8426 44.2603C29.943 44.2603 30.0354 44.2172 30.1259 44.1305C30.2284 44.0321 30.2797 43.9078 30.2797 43.7583C30.2797 43.5929 30.187 43.5121 30.002 43.5121C29.9213 43.5121 29.8503 43.536 29.7892 43.5869C29.7892 43.4907 29.8563 43.3407 29.9921 43.1382C30.1123 42.9489 30.2345 42.7993 30.3546 42.689C30.384 42.6557 30.3918 42.628 30.3819 42.6023C30.3742 42.581 30.3546 42.581 30.323 42.5985C30.1652 42.6929 29.9982 42.8741 29.8208 43.1382C29.6178 43.4335 29.5174 43.6873 29.5174 43.9023C29.5174 44.1403 29.626 44.2603 29.8426 44.2603ZM27.9049 19.4764C28.1425 19.1072 28.2619 18.7794 28.2619 18.4917C28.2619 18.1008 28.1052 17.9068 27.7958 17.9068C27.4204 17.9068 27.1857 18.1443 27.0825 18.6199C27.0668 18.7163 27.0547 18.7761 27.0486 18.7978C27.0668 18.8039 27.0797 18.8107 27.092 18.8228C27.1077 18.8167 27.1516 18.7917 27.2175 18.7483C27.3078 18.6851 27.411 18.654 27.5236 18.654C27.7272 18.654 27.8304 18.7638 27.8304 18.9823C27.8304 19.2172 27.5114 19.6765 26.8796 20.3674C26.7479 20.5084 26.6855 20.5927 26.6855 20.6144C26.6855 20.6212 26.6855 20.6238 26.6916 20.6238C26.7201 20.6238 26.8104 20.5675 26.9637 20.4617C27.3484 20.1895 27.6613 19.8611 27.9049 19.4764ZM32.9404 15.1862C32.8797 15.3115 32.7586 15.4291 32.5772 15.5398C32.3899 15.6561 32.1843 15.7331 31.9593 15.7705C31.8702 15.7842 31.819 15.7897 31.8066 15.7837C31.8039 15.7824 31.8045 15.7813 31.8059 15.7783C31.8105 15.7689 31.8554 15.7453 31.9426 15.7116C32.3635 15.544 32.5994 15.4112 32.6489 15.3089C32.695 15.2137 32.6732 15.1441 32.5846 15.1011C32.5355 15.0774 32.484 15.0692 32.4313 15.0776C32.3935 15.0827 32.3691 15.0843 32.361 15.0837C32.3582 15.0758 32.354 15.0701 32.3473 15.0636C32.3545 15.0554 32.3725 15.0319 32.3996 14.9932C32.5449 14.8078 32.6972 14.7539 32.8608 14.8331C32.9955 14.8984 33.0229 15.0159 32.9404 15.1862ZM39.1942 34.4656C39.3043 34.4656 39.4056 34.4183 39.505 34.3231C39.6174 34.2153 39.6737 34.0789 39.6737 33.9149C39.6737 33.7334 39.5719 33.6449 39.369 33.6449C39.2804 33.6449 39.2026 33.671 39.1356 33.7268C39.1356 33.6214 39.2092 33.4568 39.3582 33.2347C39.49 33.027 39.624 32.8629 39.7558 32.742C39.7881 32.7054 39.7966 32.675 39.7858 32.6468C39.7773 32.6234 39.7558 32.6234 39.7211 32.6426C39.5481 32.7462 39.3648 32.945 39.1703 33.2347C38.9476 33.5586 38.8374 33.837 38.8374 34.0728C38.8374 34.3339 38.9566 34.4656 39.1942 34.4656ZM26.918 36.7599C26.8274 36.8462 26.7351 36.8897 26.6346 36.8897C26.418 36.8897 26.3095 36.7697 26.3095 36.5312C26.3095 36.3166 26.4099 36.0624 26.6129 35.7671C26.7902 35.5033 26.9574 35.3221 27.1151 35.2277C27.1467 35.2098 27.1664 35.2098 27.174 35.2315C27.1839 35.2571 27.1762 35.2845 27.1467 35.3183C27.0265 35.4286 26.9043 35.5781 26.7843 35.7671C26.6483 35.97 26.5813 36.1196 26.5813 36.2162C26.6424 36.1649 26.7133 36.1414 26.7941 36.1414C26.9792 36.1414 27.072 36.2222 27.072 36.3875C27.072 36.5372 27.0206 36.6611 26.918 36.7599ZM44.7451 37.7181C44.7558 37.6942 44.769 37.6768 44.7798 37.6637C44.7924 37.6576 44.7971 37.6595 44.7971 37.6703C44.8013 37.681 44.8013 37.7008 44.7971 37.7289C44.6931 38.3031 44.5206 38.5905 44.2829 38.5905C44.0279 38.5905 43.9027 38.3791 43.9027 37.9576C43.9027 37.4373 44.0518 36.8926 44.3518 36.3225C44.4277 36.1819 44.4708 36.1088 44.4882 36.1064C44.4892 36.1064 44.4902 36.107 44.491 36.1078L44.4921 36.1094L44.4924 36.1107C44.4924 36.1388 44.4708 36.219 44.4277 36.3525C44.2332 36.9469 44.1361 37.3613 44.1361 37.599C44.1361 37.9229 44.2224 38.0874 44.3996 38.0874C44.5008 38.0874 44.6153 37.9642 44.7451 37.7181ZM23.5691 37.8092C23.5537 37.8214 23.5346 37.8466 23.5189 37.8872C23.3378 38.2253 23.1722 38.403 23.0188 38.4219C22.7624 38.4437 22.6375 38.2001 22.6375 37.6904C22.6375 37.6185 22.6403 37.5433 22.6531 37.4713C22.7372 36.8334 22.9497 36.1332 23.291 35.3764C23.3473 35.2448 23.3718 35.1702 23.3657 35.1485C23.3501 35.1511 23.2936 35.2197 23.1967 35.3514C23.044 35.5705 22.8689 35.952 22.6714 36.4961C22.44 37.134 22.3152 37.6558 22.2996 38.0623C22.2867 38.3969 22.3309 38.6629 22.4245 38.8597C22.5214 39.0598 22.662 39.1535 22.8499 39.1509C23.0188 39.1509 23.175 39.0225 23.3188 38.7694C23.4627 38.513 23.5563 38.2253 23.5943 37.9029C23.6004 37.8622 23.6004 37.8344 23.5943 37.8188C23.5909 37.8031 23.5815 37.7997 23.5691 37.8092ZM24.1498 21.9227C24.3724 21.9227 24.597 22.1382 24.8221 22.5691C25.0259 22.9644 25.1661 23.405 25.248 23.8918L25.2493 23.9008L25.2514 23.9143L25.2538 23.9295C25.2574 23.9531 25.2597 23.9673 25.2597 23.9736C25.2693 23.9853 25.2738 23.9853 25.2784 23.9736C25.283 23.9645 25.2947 23.9386 25.3114 23.8918C25.3698 23.4725 25.4847 22.9202 25.6534 22.2316C25.8145 21.8475 25.9904 21.6555 26.1799 21.6555C26.2785 21.6555 26.3745 21.7216 26.4726 21.8526C26.5569 21.9669 26.599 22.0584 26.599 22.1311C26.599 22.1875 26.5848 22.2577 26.5549 22.3465C26.5173 22.4659 26.4726 22.5243 26.4212 22.5243C26.3999 22.5243 26.3532 22.4802 26.2831 22.3887C26.2103 22.2972 26.1357 22.253 26.0605 22.253C25.904 22.253 25.7256 22.8008 25.5269 23.8963C25.4634 24.2455 25.3933 24.4915 25.316 24.6342C25.2621 24.7323 25.2154 24.7816 25.1778 24.7816C25.1427 24.7816 25.1265 24.7373 25.1265 24.6485C25.1265 24.5031 25.035 24.1586 24.8546 23.618C24.6677 23.0585 24.5432 22.7794 24.4801 22.7794C24.4334 22.7794 24.4029 22.7937 24.3912 22.8242C24.3769 22.8521 24.3393 22.8684 24.2764 22.8684C24.2036 22.8684 24.1102 22.8146 23.9928 22.7093C23.8759 22.6042 23.8195 22.5173 23.8195 22.4542C23.8195 22.4264 23.8668 22.3302 23.9648 22.1662C24.0634 22.002 24.1239 21.9227 24.1498 21.9227ZM53.6399 21.8459C53.8089 22.184 53.8965 22.6311 53.8965 23.1848C53.8965 23.6599 54.0871 26.59 54.4686 31.9712C54.8499 37.3498 55.0406 40.3079 55.0406 40.8392C55.0406 41.4432 55.0128 41.9711 54.9626 42.4251C54.9218 42.7529 54.9123 42.9659 54.9347 43.063C54.9531 43.1566 54.9998 43.141 55.0785 43.0128C55.1315 42.9219 55.2001 42.7753 55.2849 42.5689C55.6853 41.5803 55.8882 40.4205 55.8882 39.0912C55.8882 38.663 55.7096 36.0049 55.3568 31.121C55.0033 26.2398 54.8249 23.7725 54.8249 23.7195C54.8249 23.5784 54.8534 23.5411 54.9096 23.6097C55.3907 24.1694 55.6351 24.3195 55.6351 24.0601C55.6351 23.9821 55.6099 23.8635 55.5658 23.7127C55.5102 23.4969 55.3066 22.9377 54.9626 22.0306C54.6341 21.1613 54.4251 20.6298 54.3341 20.4358C54.2561 20.2735 54.1809 20.2702 54.115 20.4297C53.7961 21.1456 53.6399 21.618 53.6399 21.8459ZM33.0642 38.1411C33.039 38.1255 33.039 38.0909 33.0642 38.0407L33.605 36.9279C33.6396 36.8586 33.6769 36.8275 33.715 36.8275C33.7713 36.8275 34.0148 36.9746 34.4465 37.2685C34.8747 37.5623 35.0905 37.7346 35.0905 37.7841C35.0905 37.9784 34.8998 38.3786 34.5217 38.9915C34.475 39.0695 34.4274 39.0884 34.3779 39.0511C33.9525 38.7254 33.5148 38.4255 33.0642 38.1411ZM48.5275 36.0301L48.0958 36.9216C47.9832 36.809 47.7457 36.6306 47.3827 36.3869C47.0229 36.1426 46.8167 36.024 46.7637 36.0205C46.7263 36.024 46.6885 36.0551 46.6544 36.1237L46.1129 37.2373C46.0884 37.2875 46.0884 37.3213 46.1129 37.337C46.5636 37.622 47.0012 37.9219 47.4268 38.2469C47.477 38.285 47.5265 38.266 47.5706 38.188C47.724 37.9375 47.8765 37.6342 48.036 37.2779C48.5058 37.584 48.9277 37.8752 49.2997 38.15C49.3499 38.1846 49.3994 38.1663 49.4435 38.0909C49.8222 37.4808 50.0128 37.0811 50.0128 36.887C50.0128 36.8368 49.797 36.6652 49.3681 36.3714C48.9373 36.0768 48.6963 35.9302 48.64 35.9302C48.5994 35.9302 48.562 35.9615 48.5275 36.0301ZM46.4965 32.9498C46.0062 32.695 45.7595 32.4281 45.7595 32.1486C45.7595 31.813 45.9176 31.5047 46.225 31.2254C46.5369 30.9461 46.796 30.8416 47.0024 30.918C47.1763 30.9785 47.2615 31.1649 47.2615 31.4766C47.2615 31.7559 47.2044 32.0714 47.0877 32.4202C47.3344 32.5614 47.4927 32.6829 47.5532 32.7802C47.5532 32.9138 47.4434 33.136 47.2212 33.4522C47.1605 33.3548 47.0103 33.2336 46.7715 33.0877C46.4965 33.4681 46.1486 33.8167 45.7278 34.1277C45.25 34.4801 44.8081 34.747 44.4076 34.9254C44.3266 34.9658 43.8611 35.1442 43.0196 35.4561C42.886 35.5042 42.8008 35.5289 42.7561 35.5289C42.7358 35.5289 42.728 35.5211 42.728 35.5123C42.728 35.4797 42.8008 35.4156 42.9468 35.3225C43.5694 34.9535 44.1933 34.5811 44.8204 34.2051C45.5697 33.7517 46.1283 33.3346 46.4965 32.9498ZM46.796 32.2664C46.8444 32.1162 46.8531 31.9624 46.8284 31.8088C46.796 31.6383 46.7186 31.5576 46.5974 31.5576C46.5412 31.5576 46.4605 31.5864 46.3629 31.6383C46.2619 31.6954 46.2093 31.748 46.2093 31.8009C46.2093 31.9221 46.4076 32.0802 46.796 32.2664ZM45.436 41.4414C45.6938 41.1007 45.8225 40.74 45.8225 40.3627C45.8225 40.1152 45.7509 39.9091 45.6164 39.7433C45.4776 39.583 45.3119 39.5013 45.1258 39.5013C44.9096 39.5013 44.6509 39.7534 44.3464 40.2698C44.0473 40.7805 43.8971 41.1736 43.8971 41.4414C43.8971 41.8133 44.0886 41.9991 44.4706 41.9991C44.837 41.9991 45.1616 41.8133 45.436 41.4414ZM44.7754 40.2652C45.2502 40.2652 45.4922 40.4398 45.4922 40.7862C45.4922 41.085 45.2402 41.2352 44.7338 41.2352C44.4293 41.2352 44.2532 41.1736 44.1973 41.0491C44.1973 40.962 44.2747 40.8117 44.4347 40.5901C44.595 40.3727 44.708 40.2652 44.7754 40.2652ZM43.3112 22.5135C43.5393 22.5135 43.6554 22.6234 43.6554 22.848C43.6554 22.9674 43.6241 23.0923 43.561 23.2205C43.5202 23.3081 43.4172 23.4486 43.2515 23.6487C43.014 23.9209 42.858 24.1115 42.7765 24.2243C42.6422 24.4027 42.5634 24.493 42.5416 24.493C42.539 24.493 42.5356 24.4868 42.5356 24.4807C42.5356 24.459 42.5573 24.3992 42.5981 24.2962C42.6889 24.0709 42.8328 23.8455 43.0392 23.6114C43.1545 23.4832 43.2766 23.3515 43.3988 23.2205C43.352 23.1079 43.2799 23.0516 43.1769 23.0516C43.105 23.0516 43.014 23.0767 42.9108 23.1296C41.8759 23.6548 40.8784 23.9209 39.9183 23.9209C39.3896 23.9209 38.9112 23.8056 38.483 23.5768C38.5455 23.7769 38.5238 24.0146 38.4171 24.2962C38.3765 24.4054 38.3487 24.465 38.3296 24.4678C38.3202 24.4678 38.3141 24.3992 38.3141 24.2649C38.3141 24.0146 38.2733 23.7986 38.1953 23.6175C38.1857 23.5957 38.0548 23.3984 37.8077 23.0325C37.8486 22.7794 37.9109 22.6547 37.9952 22.6547C38.0046 22.6547 38.0671 22.6981 38.1858 22.789C38.327 22.9043 38.4708 22.9987 38.6174 23.0767C39.0524 23.3048 39.5307 23.4208 40.0465 23.4208C40.5907 23.4208 41.1159 23.3426 41.6223 23.1859C41.9194 23.0923 42.2731 22.945 42.6822 22.7448C43.0046 22.5888 43.2143 22.5135 43.3112 22.5135ZM31.1566 40.4172C31.4227 40.0418 31.557 39.8043 31.557 39.6978C31.557 39.4352 30.9945 39.307 29.8686 39.307C29.5125 39.307 29.2872 39.3138 29.1901 39.3294C28.9213 39.3761 28.7368 39.4821 28.6336 39.6544L28.2862 40.2421C28.2428 40.3201 28.2211 40.3703 28.2211 40.3955C28.2211 40.4266 28.3086 40.4395 28.4863 40.4301C28.859 40.4145 29.0462 40.4077 29.0495 40.4077C30.0248 40.4077 30.5161 40.4707 30.5161 40.6017C30.5161 40.6174 30.5065 40.633 30.4909 40.6519C30.3973 40.7334 30.075 40.9207 29.5247 41.2118C28.9526 41.5152 28.6024 41.712 28.4742 41.8117C28.3642 41.8965 28.3051 41.9467 28.2923 41.9651C28.2923 41.9745 28.3805 41.959 28.5556 41.9156C29.5403 41.6555 30.1191 41.4615 30.2942 41.34C30.5663 41.146 30.8533 40.8366 31.1566 40.4172ZM36.8546 20.4223C36.8546 20.3347 36.7983 20.256 36.6823 20.1909C36.5669 20.125 36.3885 20.0937 36.1475 20.0937C35.5911 20.0937 35.0564 20.256 34.5432 20.5878C34.3275 20.7256 34.2182 20.8538 34.2182 20.9726C34.2182 21.1192 34.3811 21.2848 34.7001 21.4727C35.1968 21.7007 35.5876 21.8669 35.8727 21.9668C36.2853 22.2076 36.4665 22.4233 36.417 22.6169C36.2792 22.5828 35.9229 22.4668 35.3474 22.2666C34.7001 22.0448 34.2997 21.8853 34.1402 21.7917C33.765 21.5759 33.5275 21.373 33.4243 21.1884C33.4087 21.2474 33.4019 21.3133 33.4019 21.3817C33.4019 21.7571 33.5777 22.0448 33.9244 22.2484C34.3466 22.492 35.0719 22.739 36.1102 22.9893C36.176 23.005 36.2949 22.9391 36.4665 22.7925C36.6571 22.6297 36.7603 22.4668 36.7766 22.3047C36.8044 22.0353 36.6388 21.7978 36.2818 21.5881C36.2167 21.5542 36.0416 21.4821 35.7506 21.3791C35.4627 21.2759 35.2253 21.1694 35.0441 21.0628C34.8033 20.9257 34.6845 20.8253 34.681 20.7594C34.6845 20.7221 34.7183 20.691 34.7937 20.6625C35.0156 20.575 35.3095 20.522 35.6724 20.503C36.0131 20.4813 36.2228 20.4942 36.3009 20.5376C36.4135 20.6658 36.4698 20.7568 36.4665 20.8131C36.5071 20.8348 36.6076 20.7629 36.7698 20.6C36.8261 20.5437 36.8546 20.4846 36.8546 20.4223ZM35.4235 34.7215C36.1119 34.4654 36.8078 34.2065 37.511 33.9447C37.5768 33.9223 37.6141 33.9134 37.6265 33.9223C37.6419 33.9352 37.6393 33.9697 37.6142 34.0262C37.5422 34.2039 37.4825 34.3132 37.4357 34.3477C37.414 34.3729 36.4104 34.7542 34.4274 35.4953C32.4046 36.2491 31.2761 36.693 31.0412 36.8342C31.0821 36.6652 31.1505 36.4805 31.2476 36.2771C32.6038 35.7706 33.9925 35.2539 35.4129 34.7255L35.4235 34.7215ZM28.8606 24.6168C29.158 24.4154 29.3214 24.2786 29.3506 24.2008C29.4227 24.0087 29.0465 23.7607 28.2233 23.4518C27.9622 23.3539 27.7963 23.2973 27.721 23.2821C27.5111 23.2424 27.3475 23.2699 27.2249 23.3671L26.8097 23.7016C26.7565 23.7467 26.7264 23.7772 26.7195 23.7955C26.7109 23.8184 26.7714 23.8518 26.9045 23.8939C27.1807 23.9845 27.32 24.0311 27.3219 24.0318C28.0356 24.2995 28.3775 24.4804 28.3416 24.5762C28.3373 24.5876 28.326 24.5964 28.3094 24.606C28.218 24.6397 27.9316 24.6884 27.4493 24.7503C26.9478 24.8152 26.6372 24.8629 26.5166 24.9008C26.4129 24.9326 26.356 24.9531 26.3415 24.9631C26.3389 24.9699 26.4073 24.9825 26.5472 24.9988C27.339 25.079 27.815 25.0957 27.9762 25.0549C28.2285 24.9877 28.5237 24.8404 28.8606 24.6168ZM28.4347 27.3401C28.5334 27.4609 28.5881 27.6995 28.5945 28.0608C28.6044 28.42 28.5519 28.6586 28.4451 28.7817C28.4139 28.8118 28.3075 28.8529 28.1239 28.8999C27.9393 28.9521 27.8329 28.9673 27.8033 28.9499C27.5968 28.8067 27.3906 28.6573 27.1849 28.5082L27.184 28.5076L27.1599 28.4901C26.8795 28.3115 26.6442 28.2193 26.4554 28.2089C25.8507 29.1619 25.1441 29.9711 24.3333 30.6334C24.0948 30.8282 23.8305 30.9982 23.5406 31.1476C23.4384 31.1941 23.3827 31.2138 23.3669 31.2067C23.3493 31.1852 23.4806 31.0567 23.7628 30.8262C24.2304 30.4442 24.7349 29.9131 25.2833 29.238C25.8313 28.5639 26.153 28.187 26.2524 28.1058C26.5774 27.8403 26.8944 27.7359 27.1954 27.7948C27.3435 27.8237 27.5514 27.9329 27.8251 28.117C27.8431 27.9363 27.8143 27.801 27.738 27.7076C27.7001 27.6612 27.5972 27.6423 27.4259 27.6477C27.2553 27.6526 27.1644 27.6498 27.1546 27.6378C27.1391 27.6188 27.1779 27.5771 27.2722 27.5101C27.8411 27.144 28.2272 27.0861 28.4347 27.3401ZM57.272 27.1621C57.5563 26.721 57.7002 26.3274 57.7002 25.98C57.7002 25.5111 57.5129 25.2797 57.1405 25.2797C56.6931 25.2797 56.4089 25.5641 56.284 26.1333C56.2651 26.2487 56.2527 26.3206 56.2434 26.3491C56.2651 26.3552 56.2805 26.3647 56.2962 26.3769C56.3153 26.3708 56.3655 26.3396 56.4463 26.2867C56.5561 26.2113 56.6777 26.174 56.8126 26.174C57.0597 26.174 57.1811 26.305 57.1811 26.571C57.1811 26.8493 56.7998 27.4031 56.0398 28.2316C55.8871 28.4006 55.8084 28.5003 55.8084 28.5253C55.8084 28.5316 55.8117 28.5376 55.8177 28.5376C55.8525 28.5376 55.959 28.4725 56.1428 28.3441C56.603 28.0191 56.981 27.6249 57.272 27.1621ZM44.9917 46.5206C45.3072 46.5206 45.5915 46.7079 45.842 47.0833C46.0952 47.4585 46.2701 47.9491 46.3733 48.5558L46.3758 48.5719L46.3787 48.5907L46.3823 48.6133C46.3868 48.6419 46.3896 48.6596 46.3896 48.6657C46.4018 48.684 46.4079 48.684 46.4141 48.6657C46.4183 48.6598 46.4246 48.6432 46.4347 48.6164L46.4459 48.5869L46.4581 48.5558C46.5083 48.1934 46.6332 47.6526 46.83 46.936C47.0458 46.4202 47.2806 46.1638 47.5337 46.1638C47.6654 46.1638 47.7936 46.2513 47.9246 46.4263C48.0372 46.5797 48.0935 46.7018 48.0935 46.7989C48.0935 46.8736 48.0745 46.9705 48.0339 47.0894C47.9844 47.2461 47.9246 47.3269 47.856 47.3269C47.8275 47.3269 47.7651 47.2645 47.668 47.1429C47.5744 47.0208 47.474 46.9612 47.3708 46.9612C47.1462 46.9612 46.9365 47.4959 46.7459 48.5625C46.661 49.0281 46.5673 49.3566 46.4643 49.5472C46.3924 49.6789 46.3299 49.744 46.2796 49.744C46.2329 49.744 46.2112 49.6849 46.2112 49.5663C46.2112 49.3783 46.1045 49.0159 45.8888 48.475C45.673 47.9335 45.5231 47.6647 45.4321 47.6647C45.3697 47.6647 45.3289 47.6838 45.3134 47.7245C45.295 47.7618 45.2448 47.7836 45.1607 47.7836C45.0636 47.7836 44.938 47.7116 44.782 47.5711C44.626 47.43 44.5506 47.3147 44.5506 47.2304C44.5506 47.1926 44.613 47.0642 44.7447 46.8456C44.8756 46.6266 44.9571 46.5206 44.9917 46.5206ZM57.1288 31.3992C56.9131 30.9833 56.6973 30.7769 56.4815 30.7769C56.4563 30.7769 56.3973 30.8551 56.3029 31.0111C56.2128 31.1678 56.1659 31.2614 56.1659 31.2901C56.1659 31.349 56.2222 31.4305 56.3314 31.5336C56.4442 31.6334 56.5343 31.687 56.6037 31.687C56.666 31.687 56.7006 31.6714 56.7129 31.6429C56.7258 31.6151 56.7536 31.6021 56.8005 31.6021C56.8601 31.6021 56.9817 31.8682 57.1601 32.4062C57.3352 32.9281 57.4228 33.2566 57.4228 33.397C57.4228 33.4819 57.4382 33.5254 57.4695 33.5254C57.5075 33.5254 57.551 33.4785 57.6039 33.3848C57.6792 33.2445 57.745 33.0096 57.8074 32.675C57.9981 31.6212 58.1698 31.0959 58.3205 31.0959C58.3925 31.0959 58.4644 31.1393 58.5328 31.2243C58.6015 31.3118 58.6456 31.3552 58.6673 31.3552C58.7175 31.3552 58.7581 31.2988 58.7955 31.1834C58.8233 31.0987 58.8396 31.03 58.8396 30.9772C58.8396 30.9079 58.799 30.8177 58.7175 30.7078C58.6239 30.5829 58.5295 30.5205 58.4359 30.5205C58.2512 30.5205 58.0824 30.705 57.9297 31.0742C57.7667 31.7338 57.6575 32.2652 57.5977 32.6689L57.5927 32.683L57.5824 32.7124C57.5758 32.7311 57.5716 32.7432 57.5699 32.7469C57.5631 32.7593 57.557 32.7593 57.551 32.7469L57.5508 32.7449L57.5505 32.7422C57.55 32.7382 57.549 32.7324 57.5477 32.7249L57.5476 32.7242L57.5475 32.7241L57.5448 32.7079C57.5429 32.6968 57.5409 32.6837 57.5388 32.6689C57.4599 32.1993 57.3229 31.7772 57.1288 31.3992ZM57.2647 38.0073C57.4555 38.0073 57.6339 37.9258 57.8029 37.7603C57.9997 37.573 58.0995 37.3347 58.0995 37.0505C58.0995 36.7376 57.9217 36.5814 57.5715 36.5814C57.4148 36.5814 57.2778 36.6283 57.1617 36.7254C57.165 36.5408 57.2934 36.2564 57.5491 35.8683C57.7805 35.5087 58.0119 35.2243 58.2407 35.0146C58.297 34.9522 58.3126 34.8993 58.2935 34.8524C58.2779 34.8117 58.2407 34.8082 58.1809 34.843C57.8809 35.0242 57.562 35.3681 57.2241 35.8683C56.8367 36.4315 56.6459 36.916 56.6459 37.3253C56.6459 37.7792 56.8521 38.0073 57.2647 38.0073ZM33.9529 48.3047C34.1904 47.9356 34.3092 47.6071 34.3092 47.3194C34.3092 46.9285 34.1531 46.7345 33.8437 46.7345C33.4684 46.7345 33.2335 46.9726 33.1304 47.4476C33.1149 47.5447 33.1026 47.6038 33.0958 47.6262C33.1149 47.6323 33.1271 47.6383 33.1399 47.6512C33.1555 47.6444 33.199 47.6199 33.2648 47.576C33.3558 47.5134 33.4589 47.4823 33.5716 47.4823C33.7745 47.4823 33.8775 47.5914 33.8775 47.8107C33.8775 48.0448 33.5587 48.5049 32.9276 49.1958C32.7959 49.3361 32.7334 49.4211 32.7334 49.4428C32.7334 49.4489 32.7334 49.4522 32.7395 49.4522C32.7681 49.4522 32.8583 49.3959 33.0117 49.2894C33.3965 49.0172 33.7094 48.6888 33.9529 48.3047ZM42.9609 49.9903C42.9486 49.9969 42.9386 50.014 42.9263 50.04C42.8154 50.2519 42.706 50.368 42.5984 50.3902C42.5454 50.4006 42.4956 50.3717 42.4477 50.3015C42.3847 50.2159 42.3539 50.0878 42.3539 49.9169C42.3539 49.7955 42.3691 49.6567 42.4032 49.5047C42.4856 49.1236 42.6647 48.6228 42.9438 48.0021C42.9812 47.9183 42.9965 47.867 42.9931 47.8534C42.9742 47.8567 42.9386 47.9012 42.8821 47.9865C42.7556 48.1798 42.6084 48.5048 42.4378 48.9645C42.2411 49.4876 42.1369 49.886 42.1264 50.1561C42.118 50.375 42.1454 50.5494 42.2085 50.6792C42.2719 50.8091 42.3658 50.8725 42.487 50.8688C42.5984 50.8688 42.7007 50.7853 42.7965 50.6176C42.8907 50.4518 42.9504 50.2622 42.9761 50.05C42.9812 50.0244 42.9812 50.0055 42.9761 49.9955C42.9728 49.9833 42.9675 49.9817 42.9609 49.9903Z" fill="white"/>
</g>
<defs>
<filter id="filter0_d_409_5185" x="0" y="-7" width="80" height="80" filterUnits="userSpaceOnUse" color-interpolation-filters="sRGB">
<feFlood flood-opacity="0" result="BackgroundImageFix"/>
<feColorMatrix in="SourceAlpha" type="matrix" values="0 0 0 0 0 0 0 0 0 0 0 0 0 0 0 0 0 0 127 0" result="hardAlpha"/>
<feOffset dy="1"/>
<feGaussianBlur stdDeviation="4"/>
<feComposite in2="hardAlpha" operator="out"/>
<feColorMatrix type="matrix" values="0 0 0 0 0 0 0 0 0 0 0 0 0 0 0 0 0 0 0.56 0"/>
<feBlend mode="normal" in2="BackgroundImageFix" result="effect1_dropShadow_409_5185"/>
<feBlend mode="normal" in="SourceGraphic" in2="effect1_dropShadow_409_5185" result="shape"/>
</filter>
</defs>
</svg>
